<mxfile host="app.diagrams.net" agent="Mozilla/5.0 (Windows NT 10.0; Win64; x64) AppleWebKit/537.36 (KHTML, like Gecko) Chrome/130.0.0.0 Safari/537.36" version="24.8.4">
  <diagram name="Page-1" id="eAsWVAQ5sRmtqib4f5mE">
    <mxGraphModel dx="1120" dy="788" grid="1" gridSize="10" guides="1" tooltips="1" connect="1" arrows="1" fold="1" page="1" pageScale="1" pageWidth="850" pageHeight="1100" math="0" shadow="0">
      <root>
        <mxCell id="0" />
        <mxCell id="1" parent="0" />
        <mxCell id="x2_keBt6hEzjHJbG0NDc-2" value="Prijavljeni korisnik" style="shape=umlActor;verticalLabelPosition=bottom;verticalAlign=top;html=1;outlineConnect=0;" vertex="1" parent="1">
          <mxGeometry x="400" y="300" width="50" height="90" as="geometry" />
        </mxCell>
        <mxCell id="x2_keBt6hEzjHJbG0NDc-4" value="Neregistrovan korisnik" style="shape=umlActor;verticalLabelPosition=bottom;verticalAlign=top;html=1;outlineConnect=0;" vertex="1" parent="1">
          <mxGeometry x="390" y="55" width="50" height="90" as="geometry" />
        </mxCell>
        <mxCell id="x2_keBt6hEzjHJbG0NDc-5" value="Vlasnik" style="shape=umlActor;verticalLabelPosition=bottom;verticalAlign=top;html=1;outlineConnect=0;" vertex="1" parent="1">
          <mxGeometry x="400" y="480" width="50" height="90" as="geometry" />
        </mxCell>
        <mxCell id="x2_keBt6hEzjHJbG0NDc-6" value="Admin" style="shape=umlActor;verticalLabelPosition=bottom;verticalAlign=top;html=1;outlineConnect=0;" vertex="1" parent="1">
          <mxGeometry x="560" y="60" width="50" height="90" as="geometry" />
        </mxCell>
        <mxCell id="x2_keBt6hEzjHJbG0NDc-8" value="Prijavljivanje" style="ellipse;whiteSpace=wrap;html=1;" vertex="1" parent="1">
          <mxGeometry x="500" y="210" width="90" height="50" as="geometry" />
        </mxCell>
        <mxCell id="x2_keBt6hEzjHJbG0NDc-10" value="" style="endArrow=classic;html=1;rounded=0;" edge="1" parent="1">
          <mxGeometry width="50" height="50" relative="1" as="geometry">
            <mxPoint x="370" y="110" as="sourcePoint" />
            <mxPoint x="270" y="130" as="targetPoint" />
          </mxGeometry>
        </mxCell>
        <mxCell id="x2_keBt6hEzjHJbG0NDc-15" value="Prikaz garaže, verifikovanje i odbijanje" style="ellipse;whiteSpace=wrap;html=1;" vertex="1" parent="1">
          <mxGeometry x="700" y="65" width="120" height="80" as="geometry" />
        </mxCell>
        <mxCell id="x2_keBt6hEzjHJbG0NDc-17" value="Unos,prikaz i ažuriranje osnovnih podataka o garaži" style="ellipse;whiteSpace=wrap;html=1;" vertex="1" parent="1">
          <mxGeometry x="150" y="440" width="125" height="80" as="geometry" />
        </mxCell>
        <mxCell id="x2_keBt6hEzjHJbG0NDc-18" value="" style="endArrow=classic;html=1;rounded=0;" edge="1" parent="1">
          <mxGeometry width="50" height="50" relative="1" as="geometry">
            <mxPoint x="390" y="510" as="sourcePoint" />
            <mxPoint x="280" y="490" as="targetPoint" />
          </mxGeometry>
        </mxCell>
        <mxCell id="x2_keBt6hEzjHJbG0NDc-19" value="Rezervisanje,&lt;div&gt;produživanje&lt;div&gt;rezervacije&lt;/div&gt;&lt;/div&gt;" style="ellipse;whiteSpace=wrap;html=1;" vertex="1" parent="1">
          <mxGeometry x="555" y="340" width="90" height="70" as="geometry" />
        </mxCell>
        <mxCell id="x2_keBt6hEzjHJbG0NDc-20" value="Prikaz rezervija" style="ellipse;whiteSpace=wrap;html=1;" vertex="1" parent="1">
          <mxGeometry x="260" y="220" width="80" height="70" as="geometry" />
        </mxCell>
        <mxCell id="x2_keBt6hEzjHJbG0NDc-22" value="" style="endArrow=classic;html=1;rounded=0;" edge="1" parent="1">
          <mxGeometry width="50" height="50" relative="1" as="geometry">
            <mxPoint x="470" y="330" as="sourcePoint" />
            <mxPoint x="540" y="360" as="targetPoint" />
          </mxGeometry>
        </mxCell>
        <mxCell id="x2_keBt6hEzjHJbG0NDc-23" value="" style="endArrow=classic;html=1;rounded=0;" edge="1" parent="1">
          <mxGeometry width="50" height="50" relative="1" as="geometry">
            <mxPoint x="390" y="320" as="sourcePoint" />
            <mxPoint x="340" y="290" as="targetPoint" />
          </mxGeometry>
        </mxCell>
        <mxCell id="x2_keBt6hEzjHJbG0NDc-24" value="Prikaz garaža i informacije&lt;div&gt;o garaži&lt;/div&gt;" style="ellipse;whiteSpace=wrap;html=1;" vertex="1" parent="1">
          <mxGeometry x="230" y="300" width="90" height="70" as="geometry" />
        </mxCell>
        <mxCell id="x2_keBt6hEzjHJbG0NDc-25" value="" style="endArrow=classic;html=1;rounded=0;" edge="1" parent="1">
          <mxGeometry width="50" height="50" relative="1" as="geometry">
            <mxPoint x="390" y="330" as="sourcePoint" />
            <mxPoint x="340" y="330" as="targetPoint" />
          </mxGeometry>
        </mxCell>
        <mxCell id="x2_keBt6hEzjHJbG0NDc-29" value="Filtriranje i pretraga&amp;nbsp;&lt;div&gt;garaža&lt;/div&gt;" style="ellipse;whiteSpace=wrap;html=1;" vertex="1" parent="1">
          <mxGeometry x="550" y="260" width="100" height="70" as="geometry" />
        </mxCell>
        <mxCell id="x2_keBt6hEzjHJbG0NDc-30" value="" style="endArrow=classic;html=1;rounded=0;" edge="1" parent="1">
          <mxGeometry width="50" height="50" relative="1" as="geometry">
            <mxPoint x="470" y="310" as="sourcePoint" />
            <mxPoint x="540" y="300" as="targetPoint" />
          </mxGeometry>
        </mxCell>
        <mxCell id="x2_keBt6hEzjHJbG0NDc-31" value="Prikaz putanje do garaze" style="ellipse;whiteSpace=wrap;html=1;" vertex="1" parent="1">
          <mxGeometry x="255" y="380" width="90" height="70" as="geometry" />
        </mxCell>
        <mxCell id="x2_keBt6hEzjHJbG0NDc-32" value="" style="endArrow=classic;html=1;rounded=0;" edge="1" parent="1" target="x2_keBt6hEzjHJbG0NDc-31">
          <mxGeometry width="50" height="50" relative="1" as="geometry">
            <mxPoint x="400" y="340" as="sourcePoint" />
            <mxPoint x="350" y="340" as="targetPoint" />
          </mxGeometry>
        </mxCell>
        <mxCell id="x2_keBt6hEzjHJbG0NDc-33" value="" style="endArrow=classic;html=1;rounded=0;" edge="1" parent="1">
          <mxGeometry width="50" height="50" relative="1" as="geometry">
            <mxPoint x="620" y="100" as="sourcePoint" />
            <mxPoint x="690" y="100" as="targetPoint" />
          </mxGeometry>
        </mxCell>
        <mxCell id="x2_keBt6hEzjHJbG0NDc-41" value="" style="shape=flexArrow;endArrow=classic;html=1;rounded=0;endWidth=11.111111111111112;endSize=3.8750000000000004;width=1.6666666666666667;" edge="1" parent="1" target="x2_keBt6hEzjHJbG0NDc-2">
          <mxGeometry width="50" height="50" relative="1" as="geometry">
            <mxPoint x="425" y="470" as="sourcePoint" />
            <mxPoint x="500" y="420" as="targetPoint" />
            <Array as="points" />
          </mxGeometry>
        </mxCell>
        <mxCell id="x2_keBt6hEzjHJbG0NDc-43" value="Registracija" style="ellipse;whiteSpace=wrap;html=1;" vertex="1" parent="1">
          <mxGeometry x="167.5" y="120" width="90" height="60" as="geometry" />
        </mxCell>
        <mxCell id="x2_keBt6hEzjHJbG0NDc-44" value="" style="endArrow=classic;html=1;rounded=0;" edge="1" parent="1">
          <mxGeometry width="50" height="50" relative="1" as="geometry">
            <mxPoint x="460" y="300" as="sourcePoint" />
            <mxPoint x="500" y="260" as="targetPoint" />
          </mxGeometry>
        </mxCell>
        <mxCell id="x2_keBt6hEzjHJbG0NDc-45" value="" style="endArrow=classic;html=1;rounded=0;" edge="1" parent="1">
          <mxGeometry width="50" height="50" relative="1" as="geometry">
            <mxPoint x="550" y="160" as="sourcePoint" />
            <mxPoint x="530" y="200" as="targetPoint" />
          </mxGeometry>
        </mxCell>
      </root>
    </mxGraphModel>
  </diagram>
</mxfile>
